<?xml version="1.0" encoding="UTF-8" standalone="no"?>
<!-- Created with Inkscape (http://www.inkscape.org/) -->

<svg
   xmlns:dc="http://purl.org/dc/elements/1.1/"
   xmlns:cc="http://creativecommons.org/ns#"
   xmlns:rdf="http://www.w3.org/1999/02/22-rdf-syntax-ns#"
   xmlns:svg="http://www.w3.org/2000/svg"
   xmlns="http://www.w3.org/2000/svg"
   version="1.1"
   width="9000"
   height="1500"
   id="svg2">
  <metadata
     id="metadata8">
    <rdf:RDF>
      <cc:Work
         rdf:about="">
        <dc:format>image/svg+xml</dc:format>
        <dc:type
           rdf:resource="http://purl.org/dc/dcmitype/StillImage" />
        <dc:title></dc:title>
      </cc:Work>
    </rdf:RDF>
  </metadata>
  <defs
     id="defs6" />
  <g
     id="text2998-5"
     style="font-size:270.12890625px;font-style:normal;font-weight:normal;line-height:125%;letter-spacing:0px;word-spacing:0px;fill:#afb0b2;fill-opacity:1;stroke:none;font-family:Sans">
    <path
       d="m 2169.6399,1113.9816 0,175.4891 c -2e-4,28.9983 -9.8746,51.8719 -29.6232,68.6208 -19.4989,16.749 -43.6224,25.1234 -72.3705,25.1234 -28.7483,0 -52.9968,-8.3744 -72.7455,-25.1234 -19.4988,-16.7489 -29.2482,-39.6225 -29.2482,-68.6208 l 0,-175.4891 52.1218,0 0,173.6143 c -10e-5,16.499 4.4996,28.8732 13.4991,37.1227 9.2494,7.9995 21.3736,11.9993 36.3728,11.9992 14.9989,1e-4 27.1232,-3.9997 36.3727,-11.9992 9.2493,-8.2495 13.874,-20.6237 13.8742,-37.1227 l 0,-173.6143 51.7468,0"
       id="path2992"
       style="font-size:374.97683716px;font-variant:normal;font-stretch:normal;fill:#afb0b2;font-family:Viga;-inkscape-font-specification:Viga" />
    <path
       d="m 2432.112,1113.9816 0,239.9852 c -3e-4,8.2495 -2.5001,15.374 -7.4996,21.3736 -4.9999,5.7497 -10.8745,8.6245 -17.6239,8.6245 -17.2491,0 -31.3732,-9.9994 -42.3724,-29.9981 l -92.2443,-144.3661 0,171.3644 -52.1218,0 0,-266.9835 50.2469,0 109.4933,174.7392 0,-174.7392 52.1218,0"
       id="path2994"
       style="font-size:374.97683716px;font-variant:normal;font-stretch:normal;fill:#afb0b2;font-family:Viga;-inkscape-font-specification:Viga" />
    <path
       d="m 2659.8049,1160.4787 -71.6206,0 0,220.4864 -52.1217,0 0,-220.4864 -71.2456,0 0,-46.4971 194.9879,0 0,46.4971"
       id="path2996"
       style="font-size:374.97683716px;font-variant:normal;font-stretch:normal;fill:#afb0b2;font-family:Viga;-inkscape-font-specification:Viga" />
    <path
       d="m 2752.1664,1380.9651 -52.1218,0 0,-266.9835 52.1218,0 0,266.9835"
       id="path2998"
       style="font-size:374.97683716px;font-variant:normal;font-stretch:normal;fill:#afb0b2;font-family:Viga;-inkscape-font-specification:Viga" />
    <path
       d="m 2978.9102,1380.9651 -79.4951,0 c -29.9982,0 -51.7468,-5.7497 -65.2459,-17.2489 -13.2493,-11.7493 -19.8739,-30.7481 -19.8738,-56.9965 l 0,-192.7381 52.1218,0 0,192.7381 c -10e-5,10.4994 2.3747,17.7489 7.1245,21.7486 4.7496,3.9998 13.3741,5.9997 25.8734,5.9997 l 79.4951,0 0,46.4971"
       id="path3000"
       style="font-size:374.97683716px;font-variant:normal;font-stretch:normal;fill:#afb0b2;font-family:Viga;-inkscape-font-specification:Viga" />
    <path
       d="m 3283.8426,1380.9651 -94.4942,0 c -29.9982,0 -51.1219,-5.1247 -63.3711,-15.3741 -11.9993,-10.4993 -17.9989,-28.8731 -17.9989,-55.1216 l 0,-196.4878 175.8642,0 0,46.4971 -123.7424,0 0,62.6211 86.6197,0 -3.7498,46.4972 -82.8699,0 0,37.1227 c -10e-5,10.4994 2.3748,17.7489 7.1246,21.7486 4.7496,3.9998 13.374,5.9997 25.8734,5.9997 l 90.7444,0 0,46.4971"
       id="path3002"
       style="font-size:374.97683716px;font-variant:normal;font-stretch:normal;fill:#afb0b2;font-family:Viga;-inkscape-font-specification:Viga" />
    <path
       d="m 3520.6287,1113.9816 -83.9948,251.9844 c -4.4999,11.4993 -12.4994,17.2489 -23.9985,17.2489 -11.9994,0 -20.2489,-5.7496 -24.7485,-17.2489 l -82.8699,-251.9844 53.9967,0 53.6217,173.9892 53.6217,-173.9892 54.3716,0"
       id="path3004"
       style="font-size:374.97683716px;font-variant:normal;font-stretch:normal;fill:#afb0b2;font-family:Viga;-inkscape-font-specification:Viga" />
    <path
       d="m 3728.3952,1380.9651 -94.4942,0 c -29.9982,0 -51.1219,-5.1247 -63.3711,-15.3741 -11.9993,-10.4993 -17.9989,-28.8731 -17.9989,-55.1216 l 0,-196.4878 175.8642,0 0,46.4971 -123.7424,0 0,62.6211 86.6197,0 -3.7498,46.4972 -82.8699,0 0,37.1227 c -10e-5,10.4994 2.3748,17.7489 7.1246,21.7486 4.7496,3.9998 13.374,5.9997 25.8734,5.9997 l 90.7444,0 0,46.4971"
       id="path3006"
       style="font-size:374.97683716px;font-variant:normal;font-stretch:normal;fill:#afb0b2;font-family:Viga;-inkscape-font-specification:Viga" />
    <path
       d="m 3981.6803,1380.9651 -60.3713,0 -52.1218,-98.9939 -37.4976,0 0,98.9939 -52.1218,0 0,-209.6121 c -10e-5,-19.9985 4.6247,-34.4976 13.8741,-43.4973 9.2494,-9.2491 24.7484,-13.8739 46.4972,-13.8741 l 44.2472,0 c 26.4982,2e-4 47.4969,8.1247 62.9961,24.3735 15.7488,15.9992 23.6233,36.3729 23.6236,61.1212 -3e-4,17.9991 -4.75,33.6231 -14.2492,46.8721 -9.2496,12.9993 -20.7489,21.9988 -34.4978,26.9983 l 59.6213,107.6184 m -100.8688,-142.4912 c 10.9992,10e-5 19.9986,-3.7496 26.9984,-11.2493 7.2493,-7.7494 10.8741,-17.2488 10.8743,-28.4983 -2e-4,-11.4991 -3.5,-20.7485 -10.4994,-27.7482 -6.7497,-6.9994 -15.8741,-10.4992 -27.3733,-10.4994 l -25.8734,0 c -15.4991,2e-4 -23.2486,7.8747 -23.2485,23.6235 l 0,54.3717 49.1219,0"
       id="path3008"
       style="font-size:374.97683716px;font-variant:normal;font-stretch:normal;fill:#afb0b2;font-family:Viga;-inkscape-font-specification:Viga" />
    <path
       d="m 4207.1527,1113.9816 -80.245,157.4903 0,109.4932 -51.7468,0 0,-109.4932 -80.2451,-157.4903 56.6215,0 49.8719,107.6183 49.122,-107.6183 56.6215,0"
       id="path3010"
       style="font-size:374.97683716px;font-variant:normal;font-stretch:normal;fill:#afb0b2;font-family:Viga;-inkscape-font-specification:Viga" />
    <path
       d="m 4529.1407,1380.9651 -54.3716,0 -14.9991,-46.1222 -89.6195,0 -14.6241,46.1222 -54.3716,0 85.4947,-244.4849 c 3.7497,-8.4992 7.8744,-14.3739 12.3743,-17.6239 4.7496,-3.2496 10.4992,-4.8745 17.2489,-4.8747 6.7494,2e-4 12.1241,1.5002 16.124,4.4997 4.2496,3.0001 7.9994,8.9997 11.2493,17.9989 l 85.4947,244.4849 m -81.37,-89.9945 -31.498,-105.7434 -32.998,105.7434 64.496,0"
       id="path3012"
       style="font-size:374.97683716px;font-variant:normal;font-stretch:normal;fill:#afb0b2;font-family:Viga;-inkscape-font-specification:Viga" />
    <path
       d="m 4774.2524,1113.9816 0,239.9852 c -2e-4,8.2495 -2.5,15.374 -7.4995,21.3736 -4.9999,5.7497 -10.8746,8.6245 -17.6239,8.6245 -17.2491,0 -31.3733,-9.9994 -42.3724,-29.9981 l -92.2443,-144.3661 0,171.3644 -52.1218,0 0,-266.9835 50.2469,0 109.4933,174.7392 0,-174.7392 52.1217,0"
       id="path3015"
       style="font-size:374.97683716px;font-variant:normal;font-stretch:normal;fill:#afb0b2;font-family:Viga;-inkscape-font-specification:Viga" />
    <path
       d="m 4880.453,1380.9651 -52.1218,0 0,-266.9835 52.1218,0 0,266.9835"
       id="path3017"
       style="font-size:374.97683716px;font-variant:normal;font-stretch:normal;fill:#afb0b2;font-family:Viga;-inkscape-font-specification:Viga" />
    <path
       d="m 5139.8198,1221.5999 -47.9971,101.2438 c -6.9997,13.4992 -15.7492,20.2488 -26.2484,20.2487 -10.2495,10e-5 -18.8739,-7.1245 -25.8734,-21.3737 l -48.7469,-100.1188 0,159.3652 -52.1218,0 0,-266.9835 51.3718,0 75.3703,154.1155 74.9954,-154.1155 51.3718,0 0,266.9835 -52.1217,0 0,-159.3652"
       id="path3019"
       style="font-size:374.97683716px;font-variant:normal;font-stretch:normal;fill:#afb0b2;font-family:Viga;-inkscape-font-specification:Viga" />
    <path
       d="m 5449.0057,1380.9651 -54.3716,0 -14.9991,-46.1222 -89.6195,0 -14.6241,46.1222 -54.3716,0 85.4947,-244.4849 c 3.7497,-8.4992 7.8744,-14.3739 12.3742,-17.6239 4.7496,-3.2496 10.4993,-4.8745 17.249,-4.8747 6.7494,2e-4 12.1241,1.5002 16.124,4.4997 4.2496,3.0001 7.9993,8.9997 11.2493,17.9989 l 85.4947,244.4849 m -81.37,-89.9945 -31.498,-105.7434 -32.998,105.7434 64.496,0"
       id="path3021"
       style="font-size:374.97683716px;font-variant:normal;font-stretch:normal;fill:#afb0b2;font-family:Viga;-inkscape-font-specification:Viga" />
    <path
       d="m 5650.6201,1380.9651 -79.4951,0 c -29.9982,0 -51.7468,-5.7497 -65.2459,-17.2489 -13.2493,-11.7493 -19.8739,-30.7481 -19.8738,-56.9965 l 0,-192.7381 52.1218,0 0,192.7381 c -10e-5,10.4994 2.3747,17.7489 7.1245,21.7486 4.7496,3.9998 13.3741,5.9997 25.8734,5.9997 l 79.4951,0 0,46.4971"
       id="path3023"
       style="font-size:374.97683716px;font-variant:normal;font-stretch:normal;fill:#afb0b2;font-family:Viga;-inkscape-font-specification:Viga" />
    <path
       d="m 5831.8102,1380.9651 -52.1218,0 0,-266.9835 52.1218,0 0,266.9835"
       id="path3025"
       style="font-size:374.97683716px;font-variant:normal;font-stretch:normal;fill:#afb0b2;font-family:Viga;-inkscape-font-specification:Viga" />
    <path
       d="m 6073.928,1302.22 c -2e-4,25.2484 -9.2496,45.1222 -27.7483,59.6213 -18.499,14.2491 -42.1225,21.3736 -70.8706,21.3736 -22.7487,0 -44.7473,-6.2496 -65.9959,-18.7488 -10.4994,-6.4996 -19.1239,-15.624 -25.8734,-27.3733 -6.7496,-11.9992 -10.1244,-25.6233 -10.1244,-40.8725 l 47.2471,-2.2498 c -1e-4,13.4992 5.7496,23.9985 17.2489,31.498 11.4992,7.4996 24.2484,11.2494 38.2476,11.2493 31.248,1e-4 46.872,-10.9992 46.8721,-32.9979 -1e-4,-17.9988 -10.6244,-28.6232 -31.873,-31.8731 l -43.4973,-4.4997 c -21.7487,-3.2497 -38.9976,-10.9992 -51.7468,-23.2486 -12.7492,-12.2491 -19.1238,-29.8729 -19.1238,-52.8717 0,-22.9984 9.1244,-41.9972 27.3733,-56.9965 18.2488,-14.9988 41.2474,-22.4983 68.9957,-22.4986 27.9982,3e-4 50.4968,7.1248 67.4959,21.3737 16.9987,13.9994 25.4982,32.1232 25.4984,54.3716 l -46.4971,2.2499 c -4.2499,-21.7484 -18.874,-32.6228 -43.8723,-32.623 -15.2492,2e-4 -27.2484,3.25 -35.9978,9.7494 -8.4996,6.4998 -12.7493,14.2493 -12.7492,23.2486 -1e-4,8.7496 3.1247,15.7492 9.3744,20.9987 6.2495,4.9998 13.999,8.1246 23.2486,9.3744 l 42.7473,4.4997 c 47.7469,6.4998 71.6204,32.2482 71.6206,77.2453"
       id="path3027"
       style="font-size:374.97683716px;font-variant:normal;font-stretch:normal;fill:#afb0b2;font-family:Viga;-inkscape-font-specification:Viga" />
    <path
       d="m 6378.8662,1160.4787 -94.1191,0 c -10.9995,2e-4 -18.749,2.1251 -23.2486,6.3746 -4.2498,4.25 -6.3747,11.6245 -6.3746,22.1236 l 0,37.1228 97.8689,0 -3.7497,46.4971 -94.1192,0 0,108.3683 -52.1218,0 0,-212.6119 c 0,-19.7485 4.2497,-33.7476 12.7492,-41.9974 8.7494,-8.2492 23.6235,-12.374 44.6223,-12.3742 l 118.4926,0 0,46.4971"
       id="path3029"
       style="font-size:374.97683716px;font-variant:normal;font-stretch:normal;fill:#afb0b2;font-family:Viga;-inkscape-font-specification:Viga" />
    <path
       d="m 6626.2924,1380.9651 -60.3713,0 -52.1218,-98.9939 -37.4977,0 0,98.9939 -52.1218,0 0,-209.6121 c 0,-19.9985 4.6247,-34.4976 13.8742,-43.4973 9.2494,-9.2491 24.7484,-13.8739 46.4971,-13.8741 l 44.2473,0 c 26.4982,2e-4 47.4969,8.1247 62.9961,24.3735 15.7488,15.9992 23.6233,36.3729 23.6235,61.1212 -2e-4,17.9991 -4.7499,33.6231 -14.2491,46.8721 -9.2496,12.9993 -20.7489,21.9988 -34.4979,26.9983 l 59.6214,107.6184 m -100.8688,-142.4912 c 10.9992,10e-5 19.9986,-3.7496 26.9983,-11.2493 7.2494,-7.7494 10.8742,-17.2488 10.8743,-28.4983 -1e-4,-11.4991 -3.4999,-20.7485 -10.4993,-27.7482 -6.7497,-6.9994 -15.8742,-10.4992 -27.3733,-10.4994 l -25.8734,0 c -15.4991,2e-4 -23.2487,7.8747 -23.2486,23.6235 l 0,54.3717 49.122,0"
       id="path3031"
       style="font-size:374.97683716px;font-variant:normal;font-stretch:normal;fill:#afb0b2;font-family:Viga;-inkscape-font-specification:Viga" />
    <path
       d="m 6845.3902,1380.9651 -94.4942,0 c -29.9982,0 -51.1219,-5.1247 -63.3711,-15.3741 -11.9993,-10.4993 -17.9989,-28.8731 -17.9989,-55.1216 l 0,-196.4878 175.8642,0 0,46.4971 -123.7424,0 0,62.6211 86.6197,0 -3.7498,46.4972 -82.8699,0 0,37.1227 c -10e-5,10.4994 2.3748,17.7489 7.1246,21.7486 4.7496,3.9998 13.374,5.9997 25.8734,5.9997 l 90.7444,0 0,46.4971"
       id="path3033"
       style="font-size:374.97683716px;font-variant:normal;font-stretch:normal;fill:#afb0b2;font-family:Viga;-inkscape-font-specification:Viga" />
    <path
       d="m 7072.4268,1380.9651 -94.4942,0 c -29.9982,0 -51.1219,-5.1247 -63.3711,-15.3741 -11.9993,-10.4993 -17.9989,-28.8731 -17.9988,-55.1216 l 0,-196.4878 175.8641,0 0,46.4971 -123.7424,0 0,62.6211 86.6197,0 -3.7498,46.4972 -82.8699,0 0,37.1227 c -1e-4,10.4994 2.3748,17.7489 7.1246,21.7486 4.7496,3.9998 13.3741,5.9997 25.8734,5.9997 l 90.7444,0 0,46.4971"
       id="path3035"
       style="font-size:374.97683716px;font-variant:normal;font-stretch:normal;fill:#afb0b2;font-family:Viga;-inkscape-font-specification:Viga" />
  </g>
  <g
     id="text2998"
     style="font-size:144.07765198px;font-style:normal;font-weight:normal;line-height:125%;letter-spacing:0px;word-spacing:0px;fill:#313133;fill-opacity:1;stroke:none;font-family:Sans">
    <path
       d="m 479.40168,540.14739 0.52,40.04 c -1.38699,25.30679 -4.50699,46.62677 -9.36,63.96 -4.85364,17.3334 -14.38697,33.10672 -28.6,47.32 -23.5736,23.57335 -57.89356,35.36 -102.96,35.36 -53.04013,0 -89.44009,-6.93332 -109.2,-20.8 -19.76005,-14.2133 -29.64004,-39.69327 -29.64,-76.44 l 0,-273 144.04,0 c 41.59977,3.7e-4 74.1864,11.78703 97.76,35.36 19.06636,19.06699 30.33302,42.29363 33.8,69.68 2.42634,19.41358 3.63968,45.58689 3.64,78.52 m -87.88,99.32 c 6.58642,-7.97324 10.74642,-18.89322 12.48,-32.76 2.07975,-14.2132 3.11975,-36.22651 3.12,-66.04 -2.5e-4,-29.81311 -1.04025,-51.30643 -3.12,-64.48 -1.73358,-13.51973 -5.89358,-24.26639 -12.48,-32.24 -12.48022,-15.25303 -30.50687,-22.87969 -54.08,-22.88 l -65,0 0,204.88 c -1.2e-4,13.86676 4.67988,23.40008 14.04,28.6 9.35986,5.20007 25.99984,7.80007 49.92,7.8 24.26646,7e-5 42.63978,-7.62659 55.12,-22.88"
       id="path3059"
       style="font-size:520px;font-variant:normal;font-stretch:normal;fill:#313133;font-family:Viga;-inkscape-font-specification:Viga" />
    <path
       d="m 614.7073,726.82739 -72.28,0 0,-370.24 72.28,0 0,370.24"
       id="path3061"
       style="font-size:520px;font-variant:normal;font-stretch:normal;fill:#313133;font-family:Viga;-inkscape-font-specification:Viga" />
    <path
       d="m 981.1448,726.82739 -83.72,0 -72.28,-137.28 -52,0 0,137.28 -72.28,0 0,-290.68 c -4e-5,-27.73301 6.41329,-47.83966 19.24,-60.32 12.82659,-12.8263 34.31991,-19.23963 64.48,-19.24 l 61.36,0 c 36.74645,3.7e-4 65.86642,11.26703 87.36,33.8 21.83971,22.18698 32.7597,50.44029 32.76,84.76 -3e-4,24.96023 -6.58696,46.62687 -19.76,65 -12.82694,18.02684 -28.77359,30.50683 -47.84,37.44 l 82.68,149.24 m -139.88,-197.6 c 15.25314,2e-4 27.73313,-5.19979 37.44,-15.6 10.05311,-10.74644 15.07977,-23.91976 15.08,-39.52 -2.3e-4,-15.9464 -4.85356,-28.77305 -14.56,-38.48 -9.36021,-9.70636 -22.01353,-14.55969 -37.96,-14.56 l -35.88,0 c -21.49346,3.1e-4 -32.24011,10.9203 -32.24,32.76 l 0,75.4 68.12,0"
       id="path3063"
       style="font-size:520px;font-variant:normal;font-stretch:normal;fill:#313133;font-family:Viga;-inkscape-font-specification:Viga" />
    <path
       d="m 1284.9792,726.82739 -131.04,0 c -41.6001,0 -70.8934,-7.10666 -87.88,-21.32 -16.6401,-14.55996 -24.9601,-40.03994 -24.96,-76.44 l 0,-272.48 243.88,0 0,64.48 -171.6,0 0,86.84 120.12,0 -5.2,64.48 -114.92,0 0,51.48 c -10e-5,14.56009 3.2932,24.61341 9.88,30.16 6.5865,5.54674 18.5465,8.32007 35.88,8.32 l 125.84,0 0,64.48"
       id="path3065"
       style="font-size:520px;font-variant:normal;font-stretch:normal;fill:#313133;font-family:Viga;-inkscape-font-specification:Viga" />
    <path
       d="m 1543.1429,583.30739 67.08,0 c -3e-4,47.14677 -11.7869,83.3734 -35.36,108.68 -23.5735,25.30668 -56.8535,37.96 -99.84,37.96 -94.64,0 -141.96,-55.63994 -141.96,-166.92 l 0,-31.2 c 0,-87.70638 24.2667,-142.65299 72.8,-164.84 19.0666,-9.01296 42.1199,-13.51962 69.16,-13.52 39.5198,3.8e-4 71.5865,10.92037 96.2,32.76 24.9597,21.49366 37.4397,52.69362 37.44,93.6 l -67.6,0 c -3.8135,-20.45306 -10.5735,-35.87971 -20.28,-46.28 -9.7068,-10.39969 -24.9602,-15.59969 -45.76,-15.6 -24.2668,3.1e-4 -42.2934,7.62697 -54.08,22.88 -8.3201,10.74694 -13.1734,29.12026 -14.56,55.12 -0.6934,8.32023 -1.0401,19.58688 -1.04,33.8 l 0,32.24 c -1e-4,39.86679 5.5466,67.0801 16.64,81.64 11.4399,14.56007 29.1199,21.84006 53.04,21.84 24.2665,6e-5 40.9065,-6.5866 49.92,-19.76 9.3598,-13.5199 15.4265,-34.31988 18.2,-62.4"
       id="path3067"
       style="font-size:520px;font-variant:normal;font-stretch:normal;fill:#313133;font-family:Viga;-inkscape-font-specification:Viga" />
    <path
       d="m 1912.5623,421.06739 -99.32,0 0,305.76 -72.28,0 0,-305.76 -98.8,0 0,-64.48 270.4,0 0,64.48"
       id="path3069"
       style="font-size:520px;font-variant:normal;font-stretch:normal;fill:#313133;font-family:Viga;-inkscape-font-specification:Viga" />
    <path
       d="m 2370.0242,726.82739 -75.4,0 -20.8,-63.96 -124.28,0 -20.28,63.96 -75.4,0 118.56,-339.04 c 5.1998,-11.78631 10.9198,-19.93297 17.16,-24.44 6.5865,-4.5063 14.5598,-6.75963 23.92,-6.76 9.3598,3.7e-4 16.8131,2.08037 22.36,6.24 5.8931,4.16036 11.0931,12.48035 15.6,24.96 l 118.56,339.04 m -112.84,-124.8 -43.68,-146.64 -45.76,146.64 89.44,0"
       id="path3071"
       style="font-size:520px;font-variant:normal;font-stretch:normal;fill:#313133;font-family:Viga;-inkscape-font-specification:Viga" />
    <path
       d="m 2608.5336,583.30739 67.08,0 c -3e-4,47.14677 -11.787,83.3734 -35.36,108.68 -23.5736,25.30668 -56.8536,37.96 -99.84,37.96 -94.6401,0 -141.9601,-55.63994 -141.96,-166.92 l 0,-31.2 c -10e-5,-87.70638 24.2666,-142.65299 72.8,-164.84 19.0665,-9.01296 42.1198,-13.51962 69.16,-13.52 39.5198,3.8e-4 71.5864,10.92037 96.2,32.76 24.9597,21.49366 37.4397,52.69362 37.44,93.6 l -67.6,0 c -3.8136,-20.45306 -10.5736,-35.87971 -20.28,-46.28 -9.7069,-10.39969 -24.9602,-15.59969 -45.76,-15.6 -24.2669,3.1e-4 -42.2935,7.62697 -54.08,22.88 -8.3201,10.74694 -13.1735,29.12026 -14.56,55.12 -0.6935,8.32023 -1.0401,19.58688 -1.04,33.8 l 0,32.24 c -1e-4,39.86679 5.5465,67.0801 16.64,81.64 11.4398,14.56007 29.1198,21.84006 53.04,21.84 24.2664,6e-5 40.9064,-6.5866 49.92,-19.76 9.3597,-13.5199 15.4264,-34.31988 18.2,-62.4"
       id="path3073"
       style="font-size:520px;font-variant:normal;font-stretch:normal;fill:#313133;font-family:Viga;-inkscape-font-specification:Viga" />
    <path
       d="m 2977.9529,421.06739 -99.32,0 0,305.76 -72.28,0 0,-305.76 -98.8,0 0,-64.48 270.4,0 0,64.48"
       id="path3075"
       style="font-size:520px;font-variant:normal;font-stretch:normal;fill:#313133;font-family:Viga;-inkscape-font-specification:Viga" />
    <path
       d="m 3106.0354,726.82739 -72.28,0 0,-370.24 72.28,0 0,370.24"
       id="path3077"
       style="font-size:520px;font-variant:normal;font-stretch:normal;fill:#313133;font-family:Viga;-inkscape-font-specification:Viga" />
    <path
       d="m 3463.6329,524.54739 0,28.08 c -3e-4,62.05345 -11.7869,107.12007 -35.36,135.2 -23.2269,28.08001 -60.6669,42.12 -112.32,42.12 -51.6534,0 -89.0934,-14.03999 -112.32,-42.12 -22.88,-28.07993 -34.32,-73.66655 -34.32,-136.76 l 0,-27.04 c 0,-57.5464 11.6133,-100.35969 34.84,-128.44 23.5733,-28.07964 60.6666,-42.11962 111.28,-42.12 50.9598,3.8e-4 88.3998,14.2137 112.32,42.64 23.9197,28.42697 35.8797,71.24026 35.88,128.44 m -72.28,26.52 0,-19.24 c -2e-4,-33.27977 -4.1602,-59.79974 -12.48,-79.56 -9.7069,-22.8797 -30.5068,-34.31969 -62.4,-34.32 -32.2401,3.1e-4 -53.2134,11.4403 -62.92,34.32 -7.9734,18.72026 -11.9601,45.24023 -11.96,79.56 l 0,19.24 c -1e-4,44.72013 6.2399,74.8801 18.72,90.48 4.8532,6.58675 11.9599,12.30674 21.32,17.16 9.7066,4.50673 21.1465,6.76006 34.32,6.76 13.5198,6e-5 24.9598,-2.25327 34.32,-6.76 9.3598,-4.50659 16.6398,-10.05325 21.84,-16.64 5.1998,-6.58657 9.1865,-15.25323 11.96,-26 4.8531,-16.98654 7.2798,-38.65318 7.28,-65"
       id="path3079"
       style="font-size:520px;font-variant:normal;font-stretch:normal;fill:#313133;font-family:Viga;-inkscape-font-specification:Viga" />
    <path
       d="m 3815.9492,356.58739 0,332.8 c -4e-4,11.44003 -3.467,21.32002 -10.4,29.64 -6.9337,7.97334 -15.0803,11.96 -24.44,11.96 -23.9203,0 -43.5069,-13.86665 -58.76,-41.6 l -127.92,-200.2 0,237.64 -72.28,0 0,-370.24 69.68,0 151.84,242.32 0,-242.32 72.28,0"
       id="path3081"
       style="font-size:520px;font-variant:normal;font-stretch:normal;fill:#313133;font-family:Viga;-inkscape-font-specification:Viga" />
  </g>
  <g
     id="text2998-6"
     style="font-size:144.07765198px;font-style:normal;font-weight:normal;line-height:125%;letter-spacing:0px;word-spacing:0px;fill:#313133;fill-opacity:1;stroke:none;font-family:Sans">
    <path
       d="m 5434.0415,726.82739 -131.04,0 c -41.6001,0 -70.8935,-7.10666 -87.88,-21.32 -16.6401,-14.55996 -24.9601,-40.03994 -24.96,-76.44 l 0,-272.48 243.88,0 0,64.48 -171.6,0 0,86.84 120.12,0 -5.2,64.48 -114.92,0 0,51.48 c -2e-4,14.56009 3.2932,24.61341 9.88,30.16 6.5865,5.54674 18.5465,8.32007 35.88,8.32 l 125.84,0 0,64.48"
       id="path3038"
       style="font-size:520px;font-variant:normal;font-stretch:normal;letter-spacing:36px;fill:#313133;font-family:Viga;-inkscape-font-specification:Viga" />
    <path
       d="m 5798.4052,356.58739 -116.48,349.44 c -6.2402,15.94667 -17.3335,23.92 -33.28,23.92 -16.6401,0 -28.0801,-7.97333 -34.32,-23.92 l -114.92,-349.44 74.88,0 74.36,241.28 74.36,-241.28 75.4,0"
       id="path3040"
       style="font-size:520px;font-variant:normal;font-stretch:normal;letter-spacing:36px;fill:#313133;font-family:Viga;-inkscape-font-specification:Viga" />
    <path
       d="m 6122.5258,726.82739 -131.04,0 c -41.6001,0 -70.8934,-7.10666 -87.88,-21.32 -16.64,-14.55996 -24.96,-40.03994 -24.96,-76.44 l 0,-272.48 243.88,0 0,64.48 -171.6,0 0,86.84 120.12,0 -5.2,64.48 -114.92,0 0,51.48 c -1e-4,14.56009 3.2933,24.61341 9.88,30.16 6.5866,5.54674 18.5466,8.32007 35.88,8.32 l 125.84,0 0,64.48"
       id="path3042"
       style="font-size:520px;font-variant:normal;font-stretch:normal;letter-spacing:36px;fill:#313133;font-family:Viga;-inkscape-font-specification:Viga" />
    <path
       d="m 6509.7696,726.82739 -83.72,0 -72.28,-137.28 -52,0 0,137.28 -72.28,0 0,-290.68 c -1e-4,-27.73301 6.4133,-47.83966 19.24,-60.32 12.8266,-12.8263 34.3199,-19.23963 64.48,-19.24 l 61.36,0 c 36.7464,3.7e-4 65.8664,11.26703 87.36,33.8 21.8397,22.18698 32.7597,50.44029 32.76,84.76 -3e-4,24.96023 -6.587,46.62687 -19.76,65 -12.827,18.02684 -28.7736,30.50683 -47.84,37.44 l 82.68,149.24 m -139.88,-197.6 c 15.2531,2e-4 27.7331,-5.19979 37.44,-15.6 10.0531,-10.74644 15.0798,-23.91976 15.08,-39.52 -2e-4,-15.9464 -4.8536,-28.77305 -14.56,-38.48 -9.3602,-9.70636 -22.0135,-14.55969 -37.96,-14.56 l -35.88,0 c -21.4935,3.1e-4 -32.2401,10.9203 -32.24,32.76 l 0,75.4 68.12,0"
       id="path3044"
       style="font-size:520px;font-variant:normal;font-stretch:normal;letter-spacing:36px;fill:#313133;font-family:Viga;-inkscape-font-specification:Viga" />
    <path
       d="m 6858.444,356.58739 -111.28,218.4 0,151.84 -71.76,0 0,-151.84 -111.28,-218.4 78.52,0 69.16,149.24 68.12,-149.24 78.52,0"
       id="path3046"
       style="font-size:520px;font-variant:normal;font-stretch:normal;letter-spacing:36px;fill:#313133;font-family:Viga;-inkscape-font-specification:Viga" />
    <path
       d="m 7354.2621,356.58739 -99.32,370.24 -60.32,0 -68.12,-224.64 -68.12,224.64 -60.32,0 -98.8,-370.24 75.4,0 57.2,233.48 56.68,-192.92 c 6.2398,-28.77297 19.4131,-43.15962 39.52,-43.16 10.0531,3.8e-4 17.6797,3.8137 22.88,11.44 5.1997,7.28036 9.8797,17.85368 14.04,31.72 l 56.16,192.92 57.72,-233.48 75.4,0"
       id="path3048"
       style="font-size:520px;font-variant:normal;font-stretch:normal;letter-spacing:36px;fill:#313133;font-family:Viga;-inkscape-font-specification:Viga" />
    <path
       d="m 7711.4758,726.82739 -72.28,0 0,-149.76 -135.72,0 0,149.76 -72.28,0 0,-370.24 72.28,0 0,156.52 135.72,0 0,-156.52 72.28,0 0,370.24"
       id="path3050"
       style="font-size:520px;font-variant:normal;font-stretch:normal;letter-spacing:36px;fill:#313133;font-family:Viga;-inkscape-font-specification:Viga" />
    <path
       d="m 8072.7602,726.82739 -131.04,0 c -41.6001,0 -70.8934,-7.10666 -87.88,-21.32 -16.64,-14.55996 -24.96,-40.03994 -24.96,-76.44 l 0,-272.48 243.88,0 0,64.48 -171.6,0 0,86.84 120.12,0 -5.2,64.48 -114.92,0 0,51.48 c -1e-4,14.56009 3.2932,24.61341 9.88,30.16 6.5865,5.54674 18.5465,8.32007 35.88,8.32 l 125.84,0 0,64.48"
       id="path3052"
       style="font-size:520px;font-variant:normal;font-stretch:normal;letter-spacing:36px;fill:#313133;font-family:Viga;-inkscape-font-specification:Viga" />
    <path
       d="m 8460.004,726.82739 -83.72,0 -72.28,-137.28 -52,0 0,137.28 -72.28,0 0,-290.68 c -1e-4,-27.73301 6.4132,-47.83966 19.24,-60.32 12.8266,-12.8263 34.3199,-19.23963 64.48,-19.24 l 61.36,0 c 36.7464,3.7e-4 65.8664,11.26703 87.36,33.8 21.8397,22.18698 32.7597,50.44029 32.76,84.76 -3e-4,24.96023 -6.587,46.62687 -19.76,65 -12.827,18.02684 -28.7736,30.50683 -47.84,37.44 l 82.68,149.24 m -139.88,-197.6 c 15.2531,2e-4 27.7331,-5.19979 37.44,-15.6 10.0531,-10.74644 15.0797,-23.91976 15.08,-39.52 -3e-4,-15.9464 -4.8536,-28.77305 -14.56,-38.48 -9.3602,-9.70636 -22.0136,-14.55969 -37.96,-14.56 l -35.88,0 c -21.4935,3.1e-4 -32.2402,10.9203 -32.24,32.76 l 0,75.4 68.12,0"
       id="path3054"
       style="font-size:520px;font-variant:normal;font-stretch:normal;letter-spacing:36px;fill:#313133;font-family:Viga;-inkscape-font-specification:Viga" />
    <path
       d="m 8799.8383,726.82739 -131.04,0 c -41.6001,0 -70.8934,-7.10666 -87.88,-21.32 -16.64,-14.55996 -24.96,-40.03994 -24.96,-76.44 l 0,-272.48 243.88,0 0,64.48 -171.6,0 0,86.84 120.12,0 -5.2,64.48 -114.92,0 0,51.48 c -1e-4,14.56009 3.2933,24.61341 9.88,30.16 6.5866,5.54674 18.5466,8.32007 35.88,8.32 l 125.84,0 0,64.48"
       id="path3056"
       style="font-size:520px;font-variant:normal;font-stretch:normal;letter-spacing:36px;fill:#313133;font-family:Viga;-inkscape-font-specification:Viga" />
  </g>
  <g
     transform="translate(4036.7725,49.873254)"
     id="g3010">
    <path
       d="M 91.309017,932.75 C 90.258878,931.12745 89.725291,171.69035 90.732351,112 L 91.5,66.5 98.309378,66.202957 c 9.039112,-0.394311 39.585762,3.101661 55.189562,6.316277 39.91449,8.222981 75.50159,23.411221 112.50106,48.014386 63.20399,42.02813 120.9423,107.31752 184.21065,208.30191 11.2546,17.96379 36.94791,61.33522 44.67566,75.41447 2.33958,4.2625 4.6208,7.75 5.06939,7.75 0.44858,0 7.24089,-11.1375 15.09402,-24.75 C 575.72255,282.08066 624.24712,216.29076 679.98912,163.62421 733.54933,113.01908 794.58403,80.942841 857,70.597736 c 15.09497,-2.501909 37.92119,-4.735289 45,-4.402925 L 908.5,66.5 909.11288,103 c 1.17833,70.17491 0.9964,169.49072 -0.31288,170.8 -1.90482,1.90482 -73.13805,1.70253 -74.72714,-0.21221 -0.87752,-1.05735 -1.03113,-13.43303 -0.6113,-49.25 0.3084,-26.31079 0.79828,-54.30348 1.08861,-62.20599 l 0.52789,-14.36821 -2.78903,0.6681 c -3.64542,0.87325 -27.1594,12.23632 -35.97426,17.38447 -5.44754,3.18154 -8.88231,6.36518 -16.35524,15.15947 -32.88393,38.69841 -47.45324,78.05309 -51.90713,140.21176 -1.13454,15.83369 -1.45025,115.94951 -0.40069,127.06261 l 0.6375,6.75 39.65539,0 c 29.50976,0 39.96241,0.30701 40.8554,1.2 1.72214,1.72214 1.72214,75.87786 0,77.6 -0.89302,0.89302 -11.35368,1.2 -40.89158,1.2 l -39.69158,0 -0.71479,18.25 c -1.26308,32.24857 -0.002,125.22655 1.91575,141.25 6.25203,52.23712 20.51738,87.60053 48.73866,120.82176 4.58895,5.40197 9.01177,10.89824 9.82849,12.21394 2.4172,3.89399 38.69714,23.4643 43.49871,23.4643 1.33482,0 1.51634,-5.96153 1.51634,-49.8 0,-37.4 0.2988,-50.0988 1.2,-51 1.7209,-1.7209 72.8791,-1.7209 74.6,0 1.31209,1.31209 1.46814,74.64722 0.31025,145.8 l -0.61025,37.5 -8,0.31021 c -16.5979,0.6436 -53.83882,-5.31076 -76.86114,-12.28914 C 756.44232,901.15288 694.45918,855.5897 632.3481,780.90515 596.99226,738.39205 555.64907,676.09917 512.08975,599.70873 c -9.1474,-16.0419 -11.54479,-19.57597 -12.65473,-18.6548 -0.75315,0.62506 -3.03517,4.13113 -5.07116,7.79127 -20.10721,36.14724 -50.2847,85.58787 -72.57324,118.89877 -86.5448,129.34386 -172.08436,199.29734 -268.62756,219.68123 -25.48387,5.3806 -59.900367,8.3434 -61.854043,5.3248 z m 94.820393,-89.28861 c 19.95815,-9.96738 24.435,-13.17961 33.61823,-24.12172 12.53947,-14.94118 20.45165,-26.40878 27.1428,-39.33967 14.4838,-27.99048 21.091,-52.77778 25.18954,-94.5 1.45098,-14.77069 2.13274,-329.9882 0.76996,-356 -3.53914,-67.55263 -19.15869,-111.15133 -53.67469,-149.82161 -3.12139,-3.49708 -6.12525,-7.06618 -6.67525,-7.93134 -2.4911,-3.91855 -41.04429,-23.49523 -42.85269,-21.7599 -0.81656,0.78356 1.05604,696.19324 1.8816,698.75166 0.49651,1.53873 2.14616,0.94246 14.6005,-5.27742 z M 659,498.5 c 0,-104.775 -0.3375,-190.48292 -0.75,-190.46205 -0.9974,0.0505 -4.41001,4.99516 -18.26295,26.46205 -22.28895,34.53957 -46.07959,75.05584 -80.87167,137.7272 l -13.17218,23.72719 2.66996,5.27281 c 4.3901,8.66984 39.25065,71.70619 52.13502,94.2728 22.19551,38.87479 55.95744,93.5 57.78908,93.5 C 658.79177,689 659,603.275 659,498.5 z m -300.23912,165 c 12.4849,-19.64061 28.5688,-46.68847 45.49039,-76.5 C 421.54704,556.52926 454,497.4083 454,496.3706 454,494.70236 412.42981,420.58675 393.49721,388.5 374.04866,355.53882 348.30324,315.07269 346.75,315.02367 c -0.92559,-0.0292 -0.95031,69.67664 -0.0839,236.77499 0.53654,103.48456 0.90988,128.04749 1.93033,127 0.69583,-0.71426 5.26985,-7.59866 10.16449,-15.29866 z"
       id="path3014"
       style="fill:#afb0b2;fill-opacity:1" />
    <path
       d="m 833.80986,148.08951 c 3.03354,-1.14481 0.8397,11.60905 0.75,14.03125 -0.2904,7.90251 -0.7854,35.90796 -1.0938,62.21875 -0.4198,35.81697 -0.2838,48.19265 0.5938,49.25 1.5891,1.91474 72.8451,2.12357 74.75,0.21875 1.1324,-1.13243 1.4237,-75.564 0.7187,-141.0625 -34.00228,-1.80452 -55.50266,1.93624 -75.7187,15.34375 z M 90.559856,132.02701 c -0.6132,108.42618 -0.4067,560.87818 0.2187,733.25 11.067154,3.64568 24.025394,2.46546 33.062504,1.15625 16.05288,-1.80471 33.61085,-6.2599 49.125,-17.03125 -0.9172,0.15696 -1.2597,-0.10512 -1.4375,-0.65625 -0.8256,-2.55842 -2.6916,-697.96644 -1.875,-698.75 0.098,-0.0941 0.3227,-0.11903 0.625,-0.0937 -27.43146,-14.26754 -49.75293,-17.20985 -79.718704,-17.875 z m 122.000004,39.4375 c -0.1,0.002 -0.1844,0.0259 -0.2813,0.0312 0.075,0.0881 0.1702,0.17357 0.2188,0.25 0.55,0.86516 3.5661,4.44042 6.6875,7.9375 34.516,38.67028 50.1171,82.25987 53.6562,149.8125 1.3628,26.0118 0.701,341.22931 -0.75,356 -4.0985,41.72222 -10.7037,66.50952 -25.1875,94.5 -6.6911,12.93089 -14.6168,24.40257 -27.1562,39.34375 -1.4432,1.71956 -2.7735,3.23102 -4.0625,4.625 0.9933,1.625 3.9857,2.01215 11.9375,-3.8125 51.59645,-37.76622 101.30185,-92.15861 121.6875,-142.3125 -0.3326,0.46287 -0.5988,0.84555 -0.7188,0.96875 -1.0204,1.04749 -1.4009,-23.51544 -1.9375,-127 -0.8285,-159.78263 -0.8409,-230.48218 -0.031,-236.34375 -27.84296,-54.88729 -82.04552,-106.0831 -120.4375,-137.46875 -4.36501,-2.62951 -8.17363,-6.59089 -13.625,-6.53125 z m 444.625,137.4375 c 0.4993,-0.55348 0.8524,-0.86436 1.0625,-0.875 0.4125,-0.0209 0.75,85.69375 0.75,190.46875 0,104.775 -0.2143,190.5 -0.4688,190.5 -0.1346,0 -0.4749,-0.37493 -0.9375,-0.9375 13.55052,26.20206 32.54737,49.63281 51.625,71.9375 6.24872,8.08647 71.25066,73.81039 76.3125,67.9688 0.1,-0.16138 0.659,-0.90246 1.3438,-1.9375 -1.7518,-2.30629 -5.1541,-6.52253 -8.7188,-10.71875 -28.2213,-33.22123 -42.498,-68.57538 -48.75,-120.8125 -1.9177,-16.02345 -3.1693,-109.00143 -1.9062,-141.25 l 0.7187,-18.25 39.6875,0 c 29.5379,0 40.0132,-0.29448 40.9063,-1.1875 1.7221,-1.72214 1.7221,-75.87161 0,-77.59375 -0.893,-0.89299 -11.3653,-1.21875 -40.875,-1.21875 l -39.6563,0 -0.625,-6.75 c -1.0495,-11.1131 -0.7283,-111.22881 0.4063,-127.0625 4.4539,-62.15867 19.0223,-101.52034 51.9062,-140.21875 2.9722,-3.49771 5.2997,-6.08072 7.375,-8.15625 -53.9115,20.23023 -116.73215,115.63425 -130.1562,136.0937 z m 214.3125,440 c -18.2198,0 -36.4521,0.45205 -37.3125,1.3125 -0.9012,0.9012 -1.1875,13.6 -1.1875,51 0,43.83847 -0.1652,49.78125 -1.5,49.78125 -0.092,0 -0.2299,-0.0173 -0.3438,-0.0312 3.0372,3.39429 26.2774,12.48402 44.8438,15.5625 7.1129,1.17942 27.2334,0.89317 33.5312,-0.125 0.6843,-60.52745 0.4106,-115.05815 -0.7187,-116.1875 -0.8605,-0.86045 -19.0928,-1.3125 -37.3125,-1.3125 z"
       id="path3014-9"
       style="fill:#313133;fill-opacity:1" />
  </g>
</svg>
