<?xml version="1.0" encoding="UTF-8" standalone="no"?>
<svg
   xmlns:dc="http://purl.org/dc/elements/1.1/"
   xmlns:cc="http://creativecommons.org/ns#"
   xmlns:rdf="http://www.w3.org/1999/02/22-rdf-syntax-ns#"
   xmlns:svg="http://www.w3.org/2000/svg"
   xmlns="http://www.w3.org/2000/svg"
   id="svg2"
   height="1376.8125"
   width="1226.7509"
   version="1.1">
  <metadata
     id="metadata8">
    <rdf:RDF>
      <cc:Work
         rdf:about="">
        <dc:format>image/svg+xml</dc:format>
        <dc:type
           rdf:resource="http://purl.org/dc/dcmitype/StillImage" />
        <dc:title></dc:title>
      </cc:Work>
    </rdf:RDF>
  </metadata>
  <defs
     id="defs6" />
  <path
     id="path3063"
     d="m 623.86213,0 c -44.37758,0 -84.05741,24.885874 -116.24414,62.351562 -32.18673,37.465702 -59.0466,88.593248 -81.52734,150.460938 -8.64951,23.8037 -16.6222,49.23052 -23.8711,76.06641 -26.60345,-8.05447 -52.39549,-14.75019 -77.16797,-20.01172 -21.33069,-4.53053 -41.90768,-8.01806 -61.67578,-10.40039 -0.006,-9.4e-4 -0.0132,-9.2e-4 -0.0195,-0.002 -15.59415,-2.31964 -34.45974,-4.21162 -41.23633,-3.91601 l -6.80859,0.29687 0,0.0332 c -0.848,-0.0205 -1.70264,-0.051 -2.54687,-0.0664 -20.67167,-0.37801 -40.21251,0.7728 -58.52149,3.57617 -48.82396,7.47565 -90.942921,27.96868 -114.433592,65.61914 -23.490672,37.65047 -23.381531,84.48934 -8.632813,131.62891 14.748724,47.13957 43.910603,96.99074 84.499995,148.8125 21.67142,27.66857 46.68239,55.88602 74.64258,84.24414 -27.92246,28.39487 -52.89669,56.64491 -74.53125,84.3418 -40.520825,51.87539 -69.616364,101.76674 -84.302731,148.92578 -14.686363,47.15903 -14.733802,93.996 8.80664,131.6153 23.540447,37.6194 65.685721,58.0576 114.519531,65.4687 20.80034,3.1567 43.1946,4.1721 67.01953,3.2422 5.40685,0.1045 13.5692,-0.4286 22.68555,-1.4297 25.59695,-2.2059 52.68178,-6.4427 81.08984,-12.5156 24.63712,-5.2669 50.28016,-11.9509 76.72657,-19.9844 7.21856,26.6805 15.15358,51.9635 23.75781,75.6426 22.48074,61.8676 49.3406,112.9952 81.52734,150.4609 32.18673,37.4657 71.86657,62.3517 116.24414,62.3516 44.37757,0 84.05741,-24.8859 116.24414,-62.3516 32.18673,-37.4657 59.04661,-88.5933 81.52735,-150.4609 8.64951,-23.8037 16.62219,-49.2305 23.87109,-76.0664 26.60345,8.0545 52.39549,14.7501 77.16797,20.0117 22.36229,4.7496 43.90239,8.3622 64.54297,10.7461 14.65722,2.3857 28.58942,3.7947 37.09572,3.4648 l 6.584,-0.2558 c 22.1762,0.6147 43.0829,-0.4904 62.5859,-3.4766 48.8239,-7.4757 90.943,-27.9686 114.4336,-65.6191 23.4907,-37.6504 23.3816,-84.48939 8.6328,-131.62896 -14.7487,-47.13957 -43.9105,-96.99074 -84.5,-148.8125 -21.6713,-27.66857 -46.6824,-55.88602 -74.6426,-84.24414 27.9225,-28.39487 52.8968,-56.64491 74.5313,-84.3418 40.5208,-51.87539 69.6163,-101.76674 84.3027,-148.92578 14.6863,-47.15903 14.7318,-93.99587 -8.8086,-131.61523 -23.5405,-37.61937 -65.6837,-58.05768 -114.5175,-65.46875 -18.3126,-2.77915 -37.8563,-3.9034 -58.5274,-3.49805 -2.8787,0.0565 -5.7869,0.15211 -8.709,0.26758 -3.7318,-0.15624 -11.5998,0.36976 -20.4004,1.25195 -26.20634,2.15274 -53.98195,6.4464 -83.15818,12.6836 -24.63698,5.26687 -50.28036,11.94907 -76.72656,19.98242 -7.2186,-26.68053 -15.15358,-51.9635 -23.75781,-75.64258 C 799.15288,150.94481 772.293,99.817265 740.10627,62.351562 707.91954,24.885874 668.2397,0 623.86213,0 Z m 0,61.181641 c 21.62847,0 44.8286,11.930265 69.83594,41.039059 25.00734,29.10881 49.65664,74.31487 70.43164,131.48828 8.31994,22.89673 16.02977,47.72172 23.05859,74.17188 -52.48559,19.01146 -107.42161,42.84944 -163.52929,71.22656 -56.00028,-28.23002 -110.83085,-51.945 -163.21875,-70.86328 7.05458,-26.5862 14.79633,-51.53381 23.15429,-74.53516 20.775,-57.17341 45.4243,-102.37947 70.43164,-131.48828 25.00734,-29.108794 48.20747,-41.039059 69.83594,-41.039059 z M 1042.2274,315.47461 c 15.1575,-0.0428 29.0565,0.89386 41.5059,2.7832 37.9412,5.758 60.361,19.09695 71.834,37.43164 11.4728,18.3347 13.6683,44.3307 2.2578,80.97071 -11.4105,36.64 -36.6574,81.51383 -74.1036,129.45312 -20.115,25.75156 -43.7262,52.40763 -70.3965,79.45313 L 851.8719,509.5293 c -1.1346,15.83369 -1.45575,65.10174 -0.40625,76.21484 66.14062,57.75181 0,10e-5 66.28125,57.75391 -0.0394,-6.7e-4 -0.10101,-9.2e-4 -0.14063,-0.002 10.19396,0.17498 14.46142,0.51026 15.01563,1.06446 0.42302,0.42303 0.74183,5.24717 0.95703,12.26367 12.24241,10.45104 24.10067,20.91151 35.51758,31.35351 l 44.28319,42.55469 c 26.7056,27.00979 50.3532,53.63281 70.502,79.35742 37.5097,47.88973 62.8165,92.73059 74.2754,129.35547 11.459,36.62488 9.2984,62.62293 -2.1504,80.97273 -11.4487,18.3499 -33.8517,31.7212 -71.7852,37.5293 -14.9938,2.2958 -32.0985,3.2064 -50.9687,2.6953 0.024,-1.9911 0.037,-3.9107 0.06,-5.8906 -6.325,1.015 -26.4001,1.2989 -33.5039,0.121 -18.5664,-3.0785 -41.80655,-12.1682 -44.84375,-15.5625 -5.86441,-0.7195 -40.79881,-19.608 -43.16992,-23.4277 -0.47226,-0.6121 -0.67394,-0.889 -1.12891,-1.4844 -0.67252,1.0139 -1.22748,1.7529 -1.32617,1.9121 -5.06184,5.8416 -70.06378,-59.88227 -76.3125,-67.96874 -19.07763,-22.30469 -38.07448,-45.73544 -51.625,-71.9375 0.4626,0.56257 0.8029,0.9375 0.9375,0.9375 0.10789,0 0.20497,-17.77428 0.28515,-43.50977 -6.6897,4.49266 -13.42221,8.96974 -20.24023,13.41406 -11.68278,-18.83995 -26.28061,-43.17867 -37.82617,-63.40039 -12.88437,-22.56661 -47.74467,-85.60164 -52.13477,-94.27148 l -2.66992,-5.27344 13.17187,-23.72656 c 33.02857,-59.49472 56.11844,-98.94612 77.44532,-132.34961 7.46691,4.84052 14.84805,9.71267 22.16211,14.61133 -0.13037,-27.74654 -0.29224,-46.47213 -0.47461,-46.46289 -0.2101,0.0106 -0.5632,0.32152 -1.0625,0.875 13.42343,-20.45852 76.23859,-115.85561 130.14844,-136.0918 3.14067,-3.14053 5.70109,-5.07888 8.98046,-6.99414 8.81486,-5.14815 32.32919,-16.51152 35.97461,-17.38477 l 1.57617,-0.37695 c 20.19465,-13.37444 41.68118,-17.10991 75.63672,-15.31055 -0.019,-1.81105 -0.032,-3.67308 -0.053,-5.46875 0.7972,-0.0216 1.6037,-0.0519 2.3945,-0.0684 2.2162,-0.0462 4.4069,-0.072 6.5723,-0.0781 z M 910.66682,1014.3984 c 0.009,-0.013 0.009,-0.012 0.0176,-0.025 -4.96854,-6.5261 -2.76435,-3.5683 -0.0176,0.025 z m -705.66406,-698.37301 0,0.002 c 2.16529,0.003 4.35604,0.0271 6.57226,0.0703 0.93407,0.0182 1.88516,0.0508 2.82813,0.0762 -0.007,0.99906 -0.0112,3.12571 -0.0176,4.19922 29.95506,0.66566 52.27278,3.6084 79.69531,17.86914 5.16653,0.43128 38.45033,17.41962 42.02344,21.59765 0.0911,-0.007 0.17245,-0.0274 0.26758,-0.0293 5.45137,-0.0596 9.25999,3.90174 13.625,6.53125 38.39198,31.38565 92.59454,82.58146 120.4375,137.46875 -0.0658,13.41502 -0.12007,23.53472 -0.18164,35.70898 5.69785,-3.79731 11.44301,-7.57585 17.23242,-11.33789 9.0189,14.18658 20.18893,32.33429 29.82422,48.66406 18.9326,32.08675 60.50195,106.20286 60.50195,107.8711 0,1.0377 -32.45228,60.15816 -49.74805,90.6289 -15.68361,27.63054 -30.60841,52.80698 -42.65429,71.99219 -4.6336,-3.01231 -9.23208,-6.03913 -13.80664,-9.07422 0.28943,17.09022 0.57116,28.89113 0.80078,28.89063 0.12,-0.1232 0.38615,-0.50588 0.71875,-0.96875 -20.38565,50.15389 -70.09105,104.54638 -121.6875,142.3124 -7.942,5.8175 -10.93659,5.4383 -11.9336,3.8184 -6.91196,7.4737 -12.74211,11.0928 -29.56054,19.4923 -7.98333,3.987 -11.51609,5.6549 -13.16211,5.9394 l -0.002,0 c -15.5136,10.7702 -33.07094,15.2247 -49.12304,17.0292 -9.03026,1.3083 -21.97548,2.4872 -33.03711,-1.1484 0.008,2.2533 0.015,5.4062 0.0234,7.5606 -18.74093,0.5166 -35.73793,-0.3739 -50.64844,-2.6368 -37.9412,-5.758 -60.36099,-19.0969 -71.833986,-37.4316 -11.472999,-18.3347 -13.668321,-44.33065 -2.257813,-80.97066 11.410499,-36.64 36.657259,-81.51382 74.103519,-129.45312 14.84287,-19.00207 31.60204,-38.49871 50.06836,-58.27735 -0.0326,-42.7502 -0.0512,-85.3099 -0.0586,-127.46289 C 195.51077,605.19401 178.71699,585.7113 163.8426,566.7207 126.33296,518.83097 101.02616,473.99011 89.56721,437.36523 c -11.458955,-36.62488 -9.298348,-62.6228 2.150391,-80.97265 11.448739,-18.34985 33.851609,-31.72112 71.785159,-37.5293 12.44695,-1.9058 26.34298,-2.86087 41.5,-2.83789 z m 266.59961,522.23828 c -1.24599,-73.5719 -2.61649,-245.57698 -0.40039,-0.26172 0.13239,0.0879 0.26794,0.17385 0.40039,0.26172 z m -1.34961,-298.74414 c -0.1213,0.0808 -0.24398,0.16133 -0.36524,0.24219 -0.43451,144.47022 -0.11133,93.98033 0.36524,-0.24219 z M 909.76448,362.58398 c -0.12816,0.13462 -0.25619,0.26948 -0.38672,0.40821 0.13115,-0.13981 0.25797,-0.27263 0.38672,-0.40821 z m -1.70704,1.8379 c -0.17051,0.18759 -0.35814,0.40088 -0.5332,0.5957 0.17791,-0.19869 0.35997,-0.40446 0.5332,-0.5957 z m -128.54687,11.84179 c -17.16111,18.14074 -33.88649,37.99416 -50.78906,60.40625 -12.762,-7.55094 -25.50568,-14.8919 -38.2168,-22.00586 30.31671,-14.27845 60.07921,-27.09942 89.00586,-38.40039 z m -310.32031,0.74219 c 28.50345,11.12985 57.8174,23.73621 87.66601,37.74609 l 66.84571,33.29688 c 23.06887,12.15585 46.32738,25.0936 69.66406,38.80078 -17.36256,26.20367 -35.32534,55.50226 -54.50391,88.74609 -7.85313,13.6125 -14.64712,24.75 -15.0957,24.75 -0.44859,0 -2.72878,-3.4875 -5.06836,-7.75 -7.72775,-14.07925 -33.42118,-57.45027 -44.67578,-75.41406 -6.59779,-10.53091 -13.13307,-20.65126 -19.62305,-30.41992 l -35.38086,-50.16016 c -16.70411,-22.18105 -33.23952,-41.96685 -49.82812,-59.5957 z M 623.73323,769.2793 c 1.32751,0.27865 4.16399,4.73872 12.16796,18.77539 20.9801,36.79301 41.43627,70.27519 60.9668,99.89258 35.08008,50.33593 0,0 35.08008,50.33593 8.3291,11.22387 16.42259,21.60378 24.21094,30.96875 9.84302,11.83562 19.6851,22.93381 29.54297,33.32225 -30.75062,-11.7979 -62.47565,-25.32579 -94.83399,-40.51365 -66.8457,-33.29688 0,0 -66.8457,-33.29688 -24.18123,-12.74199 -48.57176,-26.35544 -73.04102,-40.80078 21.58166,-32.86552 48.65859,-77.45105 67.19336,-110.77148 2.03599,-3.66014 4.31912,-7.16596 5.07227,-7.79102 0.13874,-0.11515 0.29669,-0.1609 0.48633,-0.12109 z M 515.83869,938.26562 c 13.82003,8.21386 27.61905,16.18083 41.38086,23.88282 -32.58056,15.34467 -64.52206,29.00509 -95.47265,40.90626 18.11826,-19.13666 36.11365,-40.7038 54.09179,-64.78908 z m 108.22657,59.43946 c 56.00028,28.23002 110.83085,51.94502 163.21875,70.86332 -7.05467,26.5866 -14.79624,51.5335 -23.1543,74.5351 -20.775,57.1734 -45.4243,102.3795 -70.43164,131.4883 -25.00734,29.1088 -48.20747,41.0391 -69.83594,41.0391 -21.62847,0 -44.8286,-11.9303 -69.83594,-41.0391 -25.00734,-29.1088 -49.65664,-74.3149 -70.43164,-131.4883 -8.32005,-22.897 -16.02969,-47.7214 -23.05859,-74.1719 52.48549,-19.0118 107.42174,-42.8491 163.5293,-71.22652 z m -280.50586,9.98042 c -0.89154,1.0623 -1.7119,1.9979 -2.53321,2.9278 0.81557,-0.9178 1.64941,-1.8748 2.53321,-2.9278 z m -48.4336,15.2403 c 0.0243,2.5926 0.049,5.7445 0.0723,7.5801 -0.0233,-1.8588 -0.048,-4.956 -0.0723,-7.5801 z m 0.11328,10.375 c 0.01,0.6018 0.0196,1.3207 0.0293,1.7676 -0.01,-0.4525 -0.0194,-1.1581 -0.0293,-1.7676 z m 0.10157,3.793 c -10e-6,0 -3e-5,0.01 0,0.01 0.005,0.016 0.0139,0.027 0.0195,0.043 -0.006,-0.017 -0.0138,-0.031 -0.0195,-0.049 z m 0.14648,0.3046 c 0.0177,0.028 0.0366,0.055 0.0566,0.08 -0.0198,-0.025 -0.0392,-0.052 -0.0566,-0.08 z"
     style="color:#000000;font-style:normal;font-variant:normal;font-weight:normal;font-stretch:normal;font-size:medium;line-height:normal;font-family:sans-serif;text-indent:0;text-align:start;text-decoration:none;text-decoration-line:none;text-decoration-style:solid;text-decoration-color:#000000;letter-spacing:normal;word-spacing:normal;text-transform:none;direction:ltr;block-progression:tb;writing-mode:lr-tb;baseline-shift:baseline;text-anchor:start;white-space:normal;clip-rule:nonzero;display:inline;overflow:visible;visibility:visible;opacity:1;isolation:auto;mix-blend-mode:normal;color-interpolation:sRGB;color-interpolation-filters:linearRGB;solid-color:#000000;solid-opacity:1;fill:#afb0b2;fill-opacity:1;fill-rule:nonzero;stroke:none;stroke-width:61.18199921;stroke-linecap:round;stroke-linejoin:round;stroke-miterlimit:4;stroke-dasharray:none;stroke-dashoffset:0;stroke-opacity:1;marker:none;color-rendering:auto;image-rendering:auto;shape-rendering:auto;text-rendering:auto;enable-background:accumulate" />
  <circle
     r="68.912949"
     cy="1265.9525"
     cx="503.3642"
     id="path4472"
     style="color:#000000;display:inline;overflow:visible;visibility:visible;fill:#5f5f5f;fill-opacity:1;stroke:none;stroke-width:61.18199921;stroke-linecap:round;stroke-linejoin:round;stroke-miterlimit:4;stroke-dasharray:none;stroke-dashoffset:0;stroke-opacity:1;marker:none;enable-background:accumulate" />
  <circle
     r="68.912949"
     cy="109.41332"
     cx="734.07269"
     id="path4472-6"
     style="color:#000000;display:inline;overflow:visible;visibility:visible;fill:#5f5f5f;fill-opacity:1;stroke:none;stroke-width:61.18199921;stroke-linecap:round;stroke-linejoin:round;stroke-miterlimit:4;stroke-dasharray:none;stroke-dashoffset:0;stroke-opacity:1;marker:none;enable-background:accumulate" />
  <circle
     r="68.912949"
     cy="810.52765"
     cx="1117.5883"
     id="path4472-2"
     style="color:#000000;display:inline;overflow:visible;visibility:visible;fill:#5f5f5f;fill-opacity:1;stroke:none;stroke-width:61.18199921;stroke-linecap:round;stroke-linejoin:round;stroke-miterlimit:4;stroke-dasharray:none;stroke-dashoffset:0;stroke-opacity:1;marker:none;enable-background:accumulate" />
  <circle
     r="68.912949"
     cy="489.93268"
     cx="68.912956"
     id="path4472-8"
     style="color:#000000;display:inline;overflow:visible;visibility:visible;fill:#5f5f5f;fill-opacity:1;stroke:none;stroke-width:61.18199921;stroke-linecap:round;stroke-linejoin:round;stroke-miterlimit:4;stroke-dasharray:none;stroke-dashoffset:0;stroke-opacity:1;marker:none;enable-background:accumulate" />
  <path
     d="m 957.62135,336.4361 c 3.03354,-1.14481 0.8397,11.60905 0.75,14.03125 -0.2904,7.90251 -0.7854,35.90796 -1.0938,62.21875 -0.4198,35.81697 -0.2838,48.19265 0.5938,49.25 1.5891,1.91474 72.84505,2.12357 74.74995,0.21875 1.1324,-1.13243 1.4237,-75.564 0.7187,-141.0625 -34.00223,-1.80452 -55.50261,1.93624 -75.71865,15.34375 z M 214.37134,320.3736 c -0.6132,108.42618 -0.4067,560.87818 0.2187,733.25 11.06716,3.6457 24.0254,2.4655 33.06251,1.1562 16.05288,-1.8047 33.61085,-6.2599 49.125,-17.0312 -0.9172,0.157 -1.2597,-0.1051 -1.4375,-0.6563 -0.8256,-2.5584 -2.6916,-697.96639 -1.875,-698.74995 0.098,-0.0941 0.3227,-0.11903 0.625,-0.0937 -27.43146,-14.26754 -49.75293,-17.20985 -79.71871,-17.875 z m 122.00001,39.4375 c -0.1,0.002 -0.1844,0.0259 -0.2813,0.0312 0.075,0.0881 0.1702,0.17357 0.2188,0.25 0.55,0.86516 3.5661,4.44042 6.6875,7.9375 34.516,38.67028 50.1171,82.25987 53.6562,149.8125 1.3628,26.0118 0.701,341.22931 -0.75,356 -4.0985,41.72222 -10.7037,66.50952 -25.1875,94.5 -6.6911,12.93089 -14.6168,24.40257 -27.1562,39.3437 -1.4432,1.7196 -2.7735,3.2311 -4.0625,4.625 0.9933,1.625 3.9857,2.0122 11.9375,-3.8125 51.59645,-37.76617 101.30185,-92.15856 121.6875,-142.31245 -0.3326,0.46287 -0.5988,0.84555 -0.7188,0.96875 -1.0204,1.04749 -1.4009,-23.51544 -1.9375,-127 -0.8285,-159.78263 -0.8409,-230.48218 -0.031,-236.34375 -27.84296,-54.88729 -82.04552,-106.0831 -120.4375,-137.46875 -4.36501,-2.62951 -8.17363,-6.59089 -13.625,-6.53125 z m 444.625,137.4375 c 0.4993,-0.55348 0.8524,-0.86436 1.0625,-0.875 0.4125,-0.0209 0.75,85.69375 0.75,190.46875 0,104.775 -0.2143,190.5 -0.4688,190.5 -0.1346,0 -0.4749,-0.37493 -0.9375,-0.9375 13.55052,26.20206 32.54737,49.63281 51.625,71.9375 6.24872,8.08647 71.25066,73.81035 76.3125,67.96875 0.1,-0.1613 0.659,-0.9024 1.3438,-1.9375 -1.7518,-2.3062 -5.1541,-6.5225 -8.7188,-10.7187 -28.2213,-33.22123 -42.498,-68.57538 -48.75,-120.8125 -1.9177,-16.02345 -3.1693,-109.00143 -1.9062,-141.25 l 0.7187,-18.25 39.6875,0 c 29.5379,0 40.0132,-0.29448 40.9063,-1.1875 1.7221,-1.72214 1.7221,-75.87161 0,-77.59375 -0.893,-0.89299 -11.3653,-1.21875 -40.875,-1.21875 l -39.6563,0 -0.625,-6.75 c -1.0495,-11.1131 -0.7283,-111.22881 0.4063,-127.0625 4.4539,-62.15867 19.0223,-101.52034 51.9062,-140.21875 2.9722,-3.49771 5.2997,-6.08072 7.375,-8.15625 -53.9115,20.23023 -116.73215,115.63425 -130.1562,136.0937 z m 214.3125,440 c -18.2198,0 -36.4521,0.45205 -37.3125,1.3125 -0.9012,0.9012 -1.1875,13.6 -1.1875,51 0,43.8385 -0.1652,49.7812 -1.5,49.7812 -0.092,0 -0.2299,-0.017 -0.3438,-0.031 3.0372,3.3942 26.2774,12.484 44.8438,15.5625 7.11285,1.1794 27.23335,0.8931 33.53115,-0.125 0.6843,-60.5275 0.4106,-115.0582 -0.7187,-116.18755 -0.8605,-0.86045 -19.0928,-1.3125 -37.31245,-1.3125 z"
     id="path3014-9"
     style="display:inline;fill:#5f5f5f;fill-opacity:1" />
</svg>
